<svg id="Layer_1" data-name="Layer 1" xmlns="http://www.w3.org/2000/svg" viewBox="0 0 490.2 487.77"><defs><style>.cls-1{fill:#fff;stroke:#231f20;stroke-miterlimit:10;stroke-width:5px;}</style></defs><path class="cls-1" d="M262.38,343.39l3.53-7.69-4.81-6.14c-5.74,55.11-6.69,109.11-11.62,162.92C246.35,438.24,243.23,384,240,328.34l-6,7.62,3.27,6.85-.63,1.41c-6.58-3.58-10.05.27-13.84,4.3a187.16,187.16,0,0,1-36.93,30.4c-21.43,13.47-42.66,11.65-63-1.25-29-18.41-46.39-45.75-55.79-78.33-4.89-16.93,0-31.49,13.66-44.52L7.51,250.51l0-1L74,245.6c-7.14-3.12-8.73-9.63-11-15.65-11-29.76-21.69-59.67-33.33-89.19-4.19-10.65-6.95-21.1-5.87-32.46,1.67-17.51,12.68-28.12,30.21-30.39,16.31-2.11,30.45,3.42,44.21,10.92,23.26,12.68,43.63,29.36,63.5,46.64,12.68,11,24.92,22.58,36.89,33.46l33-13c-4.68-8-10.15-15.69-20.44-18.33-.93-.23-1.34-2.5-2-3.82,1.54-.38,3.4-1.52,4.58-1a42,42,0,0,1,18.78,15.15c2.62,3.78,5,7.72,8,12.46,3-51.63,5.87-102.22,8.77-152.81l1.06,0,8.94,155.35,1.19.28c3.08-9.4,9.1-16.61,16.57-22.61a65.49,65.49,0,0,1,10.45-6.68c.9-.47,2.69.76,4.08,1.21-.72,1.27-1.18,3.38-2.18,3.68-9.45,2.88-14.64,10.45-20.37,17.42l31.89,12.77c9.29-8.5,19.06-17.55,29-26.45,22.33-20.08,45.41-39.21,71.82-53.81,12.78-7.06,26.12-12.57,41.27-11,22.87,2.43,34.09,14.88,32.95,37.89a75.6,75.6,0,0,1-4.87,21.64c-11.5,31.53-23.55,62.85-35.19,94.33-2.06,5.58-3.78,11-10,14l66.45,3.86,0,1-72.81,4.28a26.12,26.12,0,0,0,1.78,2.4c11.48,11.77,16,25.6,11.46,41.63-9,31.77-26.06,58.24-53.61,77.05-14,9.55-29.67,14.82-46.78,10.84-13-3-24.11-10.45-34.21-19A323.35,323.35,0,0,1,274,344.83C270.45,341.17,267.24,343.81,262.38,343.39ZM235.49,162.13c-15.08,3-26.79,7.59-31.71,12.53l34.13,32.83c.58-9.27.87-19.07,1.91-28.79C240.48,172.49,238.67,167.35,235.49,162.13ZM262,205.41,297.39,173c-9.58-3.47-17.83-6.34-26-9.45-4-1.53-5.79-.21-7.47,3.61C258,180.58,262.07,194.23,262,205.41Z" transform="translate(-4.92 -4.94)"/></svg>