<svg id="Layer_1" data-name="Layer 1" xmlns="http://www.w3.org/2000/svg" xmlns:xlink="http://www.w3.org/1999/xlink" viewBox="0 0 500 500"><defs><style>.cls-1,.cls-4{fill:none;}.cls-2{clip-path:url(#clip-path);}.cls-3{fill:#fff;}.cls-4{stroke:#fff;stroke-miterlimit:10;stroke-width:7px;}</style><clipPath id="clip-path" transform="translate(10.55 -0.04)"><ellipse class="cls-1" cx="250" cy="265.13" rx="225.39" ry="90.48"/></clipPath></defs><g class="cls-2"><image width="6000" height="4000" transform="scale(0.08 0.12)" xlink:href="Textures/10%20Unique%20Hand%20Painted%20Acrylic%20Textures%20-%20FREE/4.jpg"/></g><path class="cls-3" d="M131.46,192.58c-18.89,28.08-37.6,57.61-44.26,91.31,2.46,16.33,9,32.05,17.25,46.22-10-3.49-20-7-29.57-11.64-10.18-12.09-16.89-22.81-22-37.79C44.31,262.48,35,236,56.48,222a159.11,159.11,0,0,1,24.77-13.06,96.15,96.15,0,0,0-12.79,43C74.58,233.19,86,217.67,98,202.35,109.1,198.67,120.08,195.49,131.46,192.58Z" transform="translate(10.55 -0.04)"/><path class="cls-3" d="M239.86,280.32c0,12.31.26,24.79-1.08,37a36.09,36.09,0,0,1-8.21,19,38.46,38.46,0,0,1-18,12.1c-7.42,2.46-15.91,3.14-25.6,2a79,79,0,0,1-25.2-7.37,71.76,71.76,0,0,1-20.13-14.3c-5.7-5.77-9.83-11.67-12-17.79-3.65-10.36-5.34-21.59-6.05-32.58a168.61,168.61,0,0,1,0-26.4c.7-10.86,2.38-21.9,5.9-32.16,2.14-6.22,6.16-12.11,11.67-17.79A72.67,72.67,0,0,1,161,187.6,77.35,77.35,0,0,1,187,179.89a59.92,59.92,0,0,1,24.89,1.78,38,38,0,0,1,18.32,11.91,35.71,35.71,0,0,1,8.56,18.93c1.44,12.3,1.11,25,1.13,37.43Q239.79,265.14,239.86,280.32Zm-51.37-56.5c.61-7.74.66-12.56-.07-14.61s-2.57-3-5.53-2.74a8.53,8.53,0,0,0-6.06,3c-1.55,1.78-2.94,6.76-3.79,15.16a468.34,468.34,0,0,0-.31,77.93c.89,9.51,2.16,15.25,3.32,17.5s3.32,3.49,6.5,3.73,5.21-.87,5.85-3.36.45-8.54-.24-18.39A618.17,618.17,0,0,1,188.49,223.82Z" transform="translate(10.55 -0.04)"/><path class="cls-3" d="M259.21,179.66q17.93.28,35.8,1.65c15,1.47,30.44,2.84,44.54,7.81a55.34,55.34,0,0,1,18.93,11c4.88,4.44,8.53,9.06,10.61,13.87,3.82,8.84,5.61,18.85,6.67,28.48a251.69,251.69,0,0,1-1.12,53.62c-1.86,9-3.43,18.63-8,26.73a36.4,36.4,0,0,1-10.21,11.44,52.87,52.87,0,0,1-14.19,7.4c-5.34,1.84-13.13,3.61-23.82,4.91-19.69,2.4-39.42,3.49-59.24,4Q261.13,265.12,259.21,179.66Zm51.07,30a587.39,587.39,0,0,1,0,110.94c7-.43,11.42-2,13.32-4.51s3.59-9.14,4.44-20.15a485.71,485.71,0,0,0-.28-65.08c-.64-7.44-1.49-12.14-2.28-14.24a8.82,8.82,0,0,0-4.21-4.79C319.25,210.73,315.62,210,310.28,209.66Z" transform="translate(10.55 -0.04)"/><path class="cls-3" d="M443.84,222c21.13,15.28,11.79,39.94,2.69,58.83-5,15-11.71,25.86-21.85,38.05-9.65,4.6-19.63,8.1-29.72,11.58,8.23-14.27,14.67-30.05,17.11-46.44-5.56-33.54-24.77-63.59-43.21-91.39,11.38,2.91,22.37,6.09,33.51,9.77,11.47,14.94,23.39,30.84,28.16,49.43.18-15.95-4-29-11.46-42.89A159.11,159.11,0,0,1,443.84,222Z" transform="translate(10.55 -0.04)"/><ellipse class="cls-4" cx="260.41" cy="265.09" rx="223.12" ry="88.91"/><path class="cls-3" d="M251.57,132.19l-1,1.3.56,1.17a5.22,5.22,0,0,0-1.64.16c-.43.2-.68.73-1.07,1.05-2,1.61-3.84,3.32-5.92,4.76-3.52,2.44-7.18,2-10.61-.17a22,22,0,0,1-9.37-13.32,6.71,6.71,0,0,1,1.9-6.83l.41-.43-12.27-.72V119l11.13-.64c-1.31-.6-1.52-1.87-1.94-3-2-5.37-4.11-10.73-6-16.13a7.82,7.82,0,0,1,.2-6.13,5.33,5.33,0,0,1,4.43-2.89c2.73-.4,5.11.54,7.42,1.8a68.77,68.77,0,0,1,12.35,9.32c1.56,1.39,3.08,2.84,4.5,4.15l5.56-2.19a5.61,5.61,0,0,0-3.38-3.06c-.17,0-.26-.4-.39-.61.25-.09.56-.32.74-.24a7.09,7.09,0,0,1,3.17,2.53c.44.64.84,1.31,1.37,2.13l1.48-25.64h.17l1.5,26,.2,0a9.47,9.47,0,0,1,.46-1.08,9.37,9.37,0,0,1,4-3.78c.17-.08.49.14.74.22-.14.2-.23.53-.42.59a7.28,7.28,0,0,0-3.33,2.87c1.7.74,3.34,1.48,5,2.16.17.07.53-.17.74-.35,2.41-2.17,4.76-4.4,7.22-6.51A54,54,0,0,1,278.75,92c2.55-1.38,5.18-2.32,8.17-1.62a5.18,5.18,0,0,1,4.22,4.78,11.22,11.22,0,0,1-.81,5.23c-2.07,5.26-4,10.58-6,15.88a3.38,3.38,0,0,1-1.57,2.08l11.14.65v.18l-12.1.71-.2.3a2.08,2.08,0,0,1,.59.32,6.73,6.73,0,0,1,1.75,6.64,22.49,22.49,0,0,1-9,13,9.74,9.74,0,0,1-7.84,1.85,13.78,13.78,0,0,1-5.61-3.06,42.77,42.77,0,0,1-3.67-3.32c-.67-.69-1.23-1.37-2.36-.75l-.12-.23.56-1.18-.82-1.05c-1,9.23-1.12,18.29-2,27.32C252.63,150.64,252.11,141.54,251.57,132.19Zm-6.26-26,5.91,5.69c.1-1.5.15-3.17.32-4.83a4.3,4.3,0,0,0-.83-2.84Zm9.93,5.37,5.92-5.4c-1.68-.59-3.13-1.13-4.61-1.61a.82.82,0,0,0-.74.25,9.47,9.47,0,0,0-.76,2.71A36.21,36.21,0,0,0,255.24,111.52Z" transform="translate(10.55 -0.04)"/><path class="cls-3" d="M338.25,152.77l-.82,1.08.47,1a4.21,4.21,0,0,0-1.37.14c-.35.16-.57.6-.89.87-1.63,1.34-3.2,2.77-4.93,4-2.92,2-6,1.69-8.83-.14a18.39,18.39,0,0,1-7.79-11.08,5.62,5.62,0,0,1,1.58-5.69l.34-.36-10.21-.6v-.14l9.27-.54c-1.09-.5-1.27-1.55-1.62-2.48-1.69-4.47-3.42-8.92-5-13.42a6.51,6.51,0,0,1,.17-5.1,4.44,4.44,0,0,1,3.69-2.4,9.65,9.65,0,0,1,6.17,1.5,56.67,56.67,0,0,1,10.28,7.75c1.3,1.16,2.56,2.36,3.75,3.45l4.62-1.82a4.71,4.71,0,0,0-2.81-2.55c-.15,0-.22-.33-.32-.51.2-.07.46-.26.61-.19a5.77,5.77,0,0,1,2.63,2.1c.37.53.71,1.09,1.15,1.77.41-7.2.82-14.27,1.22-21.33h.15q.61,10.83,1.24,21.65l.17,0a7.19,7.19,0,0,1,.39-.9,7.75,7.75,0,0,1,3.35-3.14c.14-.07.41.11.61.18-.11.17-.19.44-.34.49a6.16,6.16,0,0,0-2.78,2.39c1.42.61,2.78,1.23,4.17,1.8.14,0,.45-.15.62-.3,2-1.8,4-3.66,6-5.41a45,45,0,0,1,7.71-5.5c2.12-1.15,4.31-1.93,6.8-1.35a4.31,4.31,0,0,1,3.51,4,9.33,9.33,0,0,1-.68,4.35c-1.72,4.38-3.34,8.8-5,13.22a2.82,2.82,0,0,1-1.31,1.73l9.27.54v.14l-10.08.59-.16.26a1.53,1.53,0,0,1,.49.26,5.59,5.59,0,0,1,1.45,5.53,18.74,18.74,0,0,1-7.47,10.84,8.12,8.12,0,0,1-6.53,1.54,11.6,11.6,0,0,1-4.67-2.54,38.09,38.09,0,0,1-3-2.77c-.56-.57-1-1.14-2-.62l-.1-.19.47-1-.68-.87c-.81,7.68-.93,15.22-1.62,22.73C339.14,168.12,338.7,160.55,338.25,152.77ZM333,131.1l4.92,4.73c.08-1.24.13-2.63.27-4a3.64,3.64,0,0,0-.69-2.36Zm8.27,4.47,4.92-4.49c-1.39-.5-2.6-1-3.83-1.35a.72.72,0,0,0-.62.21,8,8,0,0,0-.63,2.26A32.12,32.12,0,0,0,341.31,135.57Z" transform="translate(10.55 -0.04)"/><path class="cls-3" d="M164.1,152.77l-.82,1.08.47,1a4.18,4.18,0,0,0-1.37.14c-.36.16-.57.6-.89.87-1.63,1.34-3.2,2.77-4.93,4-2.92,2-6,1.69-8.83-.14a18.31,18.31,0,0,1-7.79-11.08,5.6,5.6,0,0,1,1.58-5.69l.34-.36-10.21-.6v-.14l9.27-.54c-1.1-.5-1.27-1.55-1.62-2.48-1.7-4.47-3.42-8.92-5-13.42a6.51,6.51,0,0,1,.17-5.1,4.42,4.42,0,0,1,3.68-2.4,9.67,9.67,0,0,1,6.18,1.5,57.37,57.37,0,0,1,10.28,7.75c1.29,1.16,2.56,2.36,3.74,3.45l4.62-1.82a4.66,4.66,0,0,0-2.8-2.55c-.15,0-.22-.33-.33-.51.21-.07.47-.26.62-.19a5.88,5.88,0,0,1,2.63,2.1c.37.53.71,1.09,1.14,1.77.42-7.2.82-14.27,1.23-21.33h.15q.62,10.83,1.24,21.65l.17,0a6,6,0,0,1,.39-.9,7.75,7.75,0,0,1,3.35-3.14c.14-.07.4.11.61.18-.11.17-.19.44-.34.49a6.11,6.11,0,0,0-2.78,2.39c1.41.61,2.78,1.23,4.17,1.8.14,0,.45-.15.61-.3,2-1.8,4-3.66,6-5.41a45,45,0,0,1,7.71-5.5c2.12-1.15,4.31-1.93,6.8-1.35a4.31,4.31,0,0,1,3.51,4,9.33,9.33,0,0,1-.68,4.35c-1.72,4.38-3.34,8.8-5,13.22a2.82,2.82,0,0,1-1.31,1.73l9.27.54v.14l-10.07.59-.16.26a1.64,1.64,0,0,1,.49.26,5.61,5.61,0,0,1,1.45,5.53,18.74,18.74,0,0,1-7.47,10.84,8.13,8.13,0,0,1-6.53,1.54,11.6,11.6,0,0,1-4.67-2.54,36.45,36.45,0,0,1-3-2.77c-.56-.57-1-1.14-2-.62l-.1-.19.47-1-.68-.87c-.81,7.68-.94,15.22-1.63,22.73C165,168.12,164.55,160.55,164.1,152.77Zm-5.21-21.67,4.92,4.73c.08-1.24.13-2.63.27-4a3.59,3.59,0,0,0-.7-2.36Zm8.26,4.47,4.93-4.49c-1.39-.5-2.6-1-3.83-1.35a.71.71,0,0,0-.62.21,8,8,0,0,0-.63,2.26A29.85,29.85,0,0,0,167.15,135.57Z" transform="translate(10.55 -0.04)"/></svg>